<svg id="Bottom_Text" data-name="Bottom Text" xmlns="http://www.w3.org/2000/svg" viewBox="0 0 54.87 50.65"><defs><style>.cls-1{fill:#74cabf;}</style></defs><title>Artboard 3</title><g id="Logo"><path class="cls-1" d="M54.87,47.32S42.11,50.59,33.18,50.6c0,0,8.87-2.93,11.61-8.94s3.12-9.24,0-16.38A18.62,18.62,0,0,0,30.13,14.84c-11.09-1.51-11.4,5.1-10.4,6.67a9.79,9.79,0,0,0,4.62,3.85l2.4,1.09s-2.92.75-3.95,2.68a5.5,5.5,0,0,0-.15,4.76,18.7,18.7,0,0,1-7-3,7.19,7.19,0,0,1-2.37-9.64c1.49-2.66,3.91-6.08,8.12-7.42s6.33-1.66,10.79-.42,8.89,5.27,8.89,5.27S48.86,27.36,54.87,47.32Z"/><path class="cls-1" d="M43.65,24.94c1.53,2.64,3.23,6.46,2.23,10.77s-1.8,6.29-5.15,9.48-9.07,5-9.07,5S20.23,52.4,0,47.38c0,0,3.71-12.64,8.26-20.32,0,.14-2,9.16,1.75,14.54S16.37,49,24.08,50A18.64,18.64,0,0,0,40.56,42.7c7-8.76,1.44-12.41-.42-12.34a9.75,9.75,0,0,0-5.67,2L32.3,33.87c0-.06.85-2.92-.28-4.77a5.49,5.49,0,0,0-4-2.56,18.65,18.65,0,0,1,6.14-4.49A7.19,7.19,0,0,1,43.65,24.94Z"/><path class="cls-1" d="M40.93,17.31S34,11,27.46,11.56s-9.59,1.81-14.3,8a18.62,18.62,0,0,0-1.92,17.91c4.11,10.41,10,7.45,10.9,5.81a9.74,9.74,0,0,0,1.1-5.92L23,34.73s2.08,2.19,4.27,2.14a5.48,5.48,0,0,0,4.22-2.19,18.67,18.67,0,0,1,.82,7.56A7.21,7.21,0,0,1,25.08,49c-3,0-7.21-.44-10.44-3.45S10.09,40.87,9,36.37,9.23,26,9.23,26,13,15,27.46,0C27.46,0,36.55,9.53,40.93,17.31Z"/><circle class="cls-1" cx="27.35" cy="31.55" r="3.56"/></g></svg>