<svg id="Bottom_Text" data-name="Bottom Text" xmlns="http://www.w3.org/2000/svg" viewBox="0 0 1277.6 1179.45"><defs><style>.cls-1{fill:#fff;}</style></defs><title>Icon_white</title><g id="Logo"><circle class="cls-1" cx="636.72" cy="734.69" r="82.91"/><path class="cls-1" d="M364.46,719.52c-90.8-59.73-90.07-162.68-55.32-224.6s91.1-141.47,189.11-172.75,147.46-38.64,251.17-9.7S956.56,435.08,956.56,435.08s181.08,202.06,321,666.75c0,0-297.17,76-505.06,76.37,0,0,206.57-68.36,270.37-208.08s72.54-215.26.54-381.46c0,0-83.72-207.88-341.88-243.07S436.06,464.24,459.44,500.77s51.75,64.15,107.63,89.66L623,616s-68.21,17.3-92.07,62.42-13.4,89-3.59,110.61C527.31,789,455.26,779.26,364.46,719.52Z"/><path class="cls-1" d="M215,606.29S302.54,349.48,639.27,0C639.27,0,851,221.94,953,403.05c0,0-160.71-146.68-313.77-133.92s-223.21,42.1-332.91,186.23c0,0-140.3,174.74-44.64,417.08s233.42,173.47,253.82,135.21,30.62-76.53,25.52-137.76L536,808.67s48.48,51,99.5,49.74,84.18-31.88,98.21-51c0,0,26.79,67.61,19.13,176S655,1141.58,584,1141.58s-167.93-10.21-243.18-80.35S234.93,951.53,209.43,846.94,215,606.29,215,606.29Z"/><path class="cls-1" d="M737.19,1167.73S471,1220.18,0,1103.13c0,0,86.43-294.27,192.34-473.16-.73,3.39-46,213.49,40.78,338.68,87.53,126.21,148,172.31,327.66,195.31,0,0,221.47,34.22,383.59-169.73s33.63-288.86-9.7-287.42-81.59,11.72-132.08,46.73l-50.48,35c.36-1.25,19.73-67.88-6.62-111-26.6-43.54-69.69-57-93.27-59.58,0,0,45.17-57,142.91-104.52s185.86,5.68,221.33,67.18,75.08,150.57,51.92,250.81-42.11,146.52-120,220.87S737.19,1167.73,737.19,1167.73Z"/></g></svg>