<svg id="Bottom_Text" data-name="Bottom Text" xmlns="http://www.w3.org/2000/svg" viewBox="0 0 1241.81 1280"><defs><style>.cls-1{fill:#29a9e1;}</style></defs><title>LockUp_bottomtext_blue</title><g id="Logo"><path class="cls-1" d="M1153.1,918s-247.58,63.33-420.77,63.61c0,0,172.1-57,225.24-173.35S1018,628.89,958,490.43c0,0-69.75-173.2-284.81-202.51S452,386.77,471.47,417.2s43.13,53.44,89.68,74.7l46.56,21.26s-56.83,14.41-76.71,52-11.15,74.17-3,92.16c0,0-60-8.1-135.68-57.86s-75-135.55-46.09-187.13,75.9-117.85,157.55-143.92,122.86-32.19,209.25-8.07S885.64,362.47,885.64,362.47,1036.49,530.81,1153.1,918Z"/><path class="cls-1" d="M935.55,483.7c29.56,51.24,62.55,125.44,43.24,209s-35.09,122.07-99.94,184-176,96.19-176,96.19S481.09,1016.56,88.7,919c0,0,72-245.15,160.25-394.19-.61,2.82-38.35,177.85,34,282.16,72.92,105.14,123.29,143.56,273,162.72,0,0,184.51,28.51,319.58-141.41s28-240.65-8.1-239.45-68,9.76-110,38.93c-40.42,28-42,29.13-42.06,29.16.3-1.05,16.42-56.56-5.53-92.5-22.15-36.29-58-47.48-77.7-49.64,0,0,37.63-47.47,119.06-87.08S906,432.46,935.55,483.7Z"/><path class="cls-1" d="M882.71,335.79S748.82,213.59,621.3,224.21,435.34,259.28,344,379.37c0,0-116.89,145.57-37.19,347.48S501.22,871.37,518.22,839.49s25.5-63.76,21.26-114.77l-4.26-51s40.38,42.52,82.89,41.45,70.14-26.57,81.82-42.51c0,0,22.32,56.33,16,146.65S634.41,951.06,575.25,951.06s-139.91-8.49-202.62-66.94-88.19-91.39-109.45-178.53,4.61-200.49,4.61-200.49S340.75,291.16,621.3,0C621.3,0,797.7,184.89,882.71,335.79Z"/><path class="cls-1" d="M619.18,543a69.07,69.07,0,1,1-69.08,69.08A69.08,69.08,0,0,1,619.18,543Z"/></g><g id="Text"><path class="cls-1" d="M0,1006.45H28.91l62.17,181.23,61.54-181.23h27.67L103.82,1224H76.47Z"/><path class="cls-1" d="M297.17,1205.71c-8.09,13-24.56,21.75-53.78,21.75-41.65,0-55.33-22.07-55.33-49.42,0-31.71,18.34-49.42,59.37-49.42h48.18v-13.68c0-20.52-9.32-37.61-39.16-37.61-27.36,0-39.79,12.43-39.79,26.42v2.48H192.41v-2.48c0-24.87,19.59-47.25,64.66-47.25,48.49,0,64.34,26.42,64.34,59.37V1224h-23Zm-1.56-40.1v-16.17H251.16c-27.35,0-37,10.57-37,28,0,16.16,7.77,29.22,35.75,29.22C283.49,1206.64,295.61,1188.92,295.61,1165.61Z"/><path class="cls-1" d="M387.31,1280l21.14-56.58-60-163.5h27.35l45.07,129.93,47.56-129.93h25.8L412.18,1280Z"/><path class="cls-1" d="M633.19,1202c-9,15.24-26.74,25.49-52.23,25.49-37.3,0-57.81-26.42-57.81-58.75V1059.92H549v102.89c0,20.83,8.08,41.65,39.79,41.65,32.63,0,42.89-23.31,42.89-47.56v-97h26.11V1224h-23Z"/><path class="cls-1" d="M789.22,1224H770.57c-46,0-57.19-23-57.19-51v-92.64H689.75v-20.2h23.63v-42.9h25.8v42.9h44.76v20.2H739.18v91.08c0,19.9,8.08,31.09,35.12,31.09h14.92Z"/><path class="cls-1" d="M820.3,1224V1059.92h23l1.86,27.66c9-18,27.67-30.77,58.13-30.77V1082h-4.66c-38.24,0-52.54,23.62-52.54,53.46V1224Z"/><path class="cls-1" d="M924.75,1121.16c0-30.78,16.79-64.66,69-64.66,52.53,0,69,33.88,69,64.66v41.34c0,31.08-16.47,65-69,65-52.22,0-69-33.88-69-65Zm112.21-.32c0-20.2-10.56-42.89-43.2-42.89s-43.21,22.69-43.21,42.89v42c0,20.2,10.57,43.21,43.21,43.21s43.2-23,43.2-43.21Z"/><path class="cls-1" d="M1104.73,1224V1059.92h23l1.55,22.38c9-15.54,27-25.8,53.16-25.8,39.79,0,59.37,27.35,59.37,61.55v106H1215.7V1124c0-22.38-8.39-44.45-40.72-44.45-33.57,0-44.45,23.32-44.45,47.56v97Z"/></g></svg>