<svg xmlns="http://www.w3.org/2000/svg" viewBox="0 0 3749.79 920"><defs><style>.cls-1{fill:#fff;}</style></defs><title>LockUp_right-text_white</title><g id="Text_on_right" data-name="Text on right"><path class="cls-1" d="M1000,228h64l137.66,401.28L1338,228h61.25L1229.93,709.76h-60.57Z"/><path class="cls-1" d="M1658.06,669.15c-17.9,28.91-54.38,48.18-119.08,48.18-92.23,0-122.52-48.87-122.52-109.44,0-70.2,40.61-109.44,131.47-109.44h106.69V468.17c0-45.43-20.65-83.29-86.73-83.29-60.57,0-88.1,27.53-88.1,58.51v5.5H1426.1v-5.5c0-55.07,43.36-104.63,143.17-104.63,107.37,0,142.47,58.51,142.47,131.47V709.76h-50.93Zm-3.44-88.79V544.57h-98.43c-60.57,0-81.91,23.4-81.91,61.95,0,35.79,17.21,64.7,79.15,64.7C1627.77,671.22,1654.62,632,1654.62,580.36Z"/><path class="cls-1" d="M1857.67,833.66l46.8-125.27-132.84-362h60.57L1932,634.05l105.31-287.71h57.13L1912.73,833.66Z"/><path class="cls-1" d="M2402.11,660.89c-20,33.73-59.19,56.44-115.63,56.44-82.6,0-128-58.5-128-130.09V346.34h57.13V574.17c0,46.11,17.9,92.23,88.1,92.23,72.28,0,95-51.62,95-105.31V346.34h57.82V709.76h-50.94Z"/><path class="cls-1" d="M2747.63,709.76h-41.3c-101.87,0-126.65-50.93-126.65-112.88V391.76h-52.31V347h52.31V252h57.13v95h99.12v44.74h-99.12V593.44c0,44,17.9,68.83,77.78,68.83h33Z"/><path class="cls-1" d="M2816.45,709.76V346.34h50.93l4.13,61.26c20-39.93,61.26-68.15,128.72-68.15v55.76H2989.9c-84.66,0-116.32,52.31-116.32,118.38V709.76Z"/><path class="cls-1" d="M3047.72,481.93c0-68.14,37.17-143.17,152.81-143.17,116.32,0,152.8,75,152.8,143.17v91.55c0,68.83-36.48,143.85-152.8,143.85-115.64,0-152.81-75-152.81-143.85Zm248.48-.69c0-44.74-23.4-95-95.67-95s-95.68,50.24-95.68,95v92.93c0,44.74,23.41,95.67,95.68,95.67s95.67-50.93,95.67-95.67Z"/><path class="cls-1" d="M3446.25,709.76V346.34h50.93l3.44,49.55c20-34.41,59.89-57.13,117.7-57.13,88.11,0,131.47,60.58,131.47,136.29V709.76H3692V488.13c0-49.56-18.58-98.43-90.16-98.43-74.34,0-98.43,51.62-98.43,105.31V709.76Z"/><path class="cls-1" d="M602.6,919s161.13-53.32,210.89-162.3,56.59-167.91.43-297.55c0,0-65.3-162.14-266.68-189.6s-207.1,92.55-188.86,121.05,40.36,50,83.95,69.94l43.61,19.91S432.73,494,414.11,529.15s-10.45,69.44-2.79,86.28c0,0-56.2-7.59-127-54.18S214,434.35,241.14,386.05,312.2,275.71,388.65,251.3s115-30.14,195.91-7.55,161.58,95.62,161.58,95.62S887.39,497,996.56,859.46C996.56,859.46,764.76,918.76,602.6,919Z"/><circle class="cls-1" cx="496.66" cy="573.08" r="64.67"/><path class="cls-1" d="M402.13,786C418.06,756.15,426,726.3,422,678.55l-4-47.76s37.81,39.79,77.61,38.8,65.66-24.87,76.6-39.79c0,0,20.9,52.72,14.92,137.3S510.92,890.46,455.53,890.46s-131-8-189.69-62.68-82.59-85.56-102.48-167.14,4.3-187.71,4.3-187.71S236,272.62,498.65,0c0,0,165.15,173.12,244.75,314.4,0,0-125.37-114.42-244.75-104.46S324.54,242.77,239,355.19c0,0-109.44,136.31-34.82,325.34S386.22,815.85,402.13,786Z"/><path class="cls-1" d="M181.84,755.57C250.11,854,297.29,890,437.42,907.93c0,0,172.75,26.69,299.22-132.41s26.22-225.31-7.58-224.19-63.64,9.14-103,36.45c-37.84,26.25-39.32,27.27-39.37,27.3.28-1,15.38-52.94-5.17-86.59-20.75-34-54.35-44.46-72.75-46.49,0,0,35.23-44.43,111.47-81.53s145,4.44,172.65,52.41,58.56,117.46,40.5,195.64S800.51,762.8,739.78,820.81,575,910.86,575,910.86,367.38,951.77,0,860.47c0,0,67.42-229.54,150-369.08C149.46,494,114.11,657.92,181.84,755.57Z"/></g></svg>